<?xml version="1.0" encoding="utf-8"?>
<svg version="1.1" id="stone" xmlns="http://www.w3.org/2000/svg" xmlns:xlink="http://www.w3.org/1999/xlink" x="0px"
  y="0px" viewBox="0 0 900 980" style="enable-background:new 0 0 900 980;" xml:space="preserve">
  <style type="text/css">
    .st0 {
      fill: #787878;
    }

    .st1 {
      fill: #595959;
    }

    .st2 {
      fill: #6B6B6B;
    }
  </style>
  <g>
    <g>
      <g>
        <path class="st0" d="M705.08,218.16l180.86,294.78c2.6,4.24,4.15,9.11,4.48,14.07l8.93,134.19c0.92,13.9-3.6,27.33-12.75,37.82
				L676.09,940.46L705.08,218.16z" />
      </g>
    </g>
    <g>
      <g>
        <path class="st0" d="M885.94,512.94L705.08,218.16l-28.99,722.3L886.6,699.03c9.08-10.42,13.67-24.02,12.75-37.82l-8.93-134.19
				C890.09,522.03,888.55,517.2,885.94,512.94z" />
      </g>
    </g>
    <g>
      <g>
        <path class="st1"
          d="M16.49,388.76L143.44,144.5c6.94-13.35,18.27-24.21,31.9-30.57L418.77,0.39l257.32,940.08L16.49,388.76z" />
      </g>
    </g>
    <g>
      <g>
        <path class="st1" d="M143.44,144.5L16.49,388.76l659.6,551.7L418.77,0.39L175.34,113.94
				C161.64,120.33,150.42,131.07,143.44,144.5z" />
      </g>
    </g>
    <g>
      <g>
        <polygon class="st2" points="418.77,0.39 705.08,218.16 676.09,940.46 			" />
      </g>
    </g>
    <g>
      <g>
        <polygon class="st2" points="418.77,0.39 676.09,940.46 705.08,218.16" />
      </g>
    </g>
    <g>
      <g>
        <polygon class="st2" points="16.49,388.76 676.09,940.46 306.42,980.39" />
      </g>
    </g>
    <g>
      <g>
        <polygon class="st2" points="306.42,980.39 676.09,940.46 16.49,388.76" />
      </g>
    </g>
    <g>
      <g>
        <path class="st0"
          d="M17.21,769.11C5.41,760.5-1.2,746.63-0.48,732.02l16.97-343.26l289.93,591.63L17.21,769.11z" />
      </g>
    </g>
    <g>
      <g>
        <path class="st0"
          d="M17.21,769.11l289.21,211.27L16.49,388.76L-0.48,732.02C-1.2,746.58,5.45,760.52,17.21,769.11z" />
      </g>
    </g>
  </g>
</svg>